<?xml version="1.0" encoding="utf-8"?>
<!-- Generator: Adobe Illustrator 21.0.0, SVG Export Plug-In . SVG Version: 6.00 Build 0)  -->
<svg version="1.1" id="Layer_1" xmlns="http://www.w3.org/2000/svg" xmlns:xlink="http://www.w3.org/1999/xlink" x="0px" y="0px"
	 viewBox="0 0 25 15" style="enable-background:new 0 0 25 15;" xml:space="preserve">
<style type="text/css">
	.st0{fill:#010101;}
</style>
<g>
	<g>
		<path class="st0" d="M1,8.9L1,8.9l19,0l-3.8,3.8c-0.2,0.2-0.3,0.4-0.3,0.7c0,0.3,0.1,0.5,0.3,0.7l0.6,0.6c0.2,0.2,0.4,0.3,0.7,0.3
			c0.3,0,0.5-0.1,0.7-0.3l6.5-6.5C24.9,8,25,7.8,25,7.5c0-0.3-0.1-0.5-0.3-0.7l-6.5-6.5C18,0.1,17.8,0,17.5,0
			c-0.3,0-0.5,0.1-0.7,0.3l-0.6,0.6c-0.2,0.2-0.3,0.4-0.3,0.7c0,0.3,0.1,0.5,0.3,0.7l3.8,3.8H1c-0.5,0-1,0.5-1,1v0.8
			C0,8.5,0.5,8.9,1,8.9z"/>
	</g>
</g>
</svg>
